<svg width="174" height="28" viewBox="0 0 174 28" fill="none" xmlns="http://www.w3.org/2000/svg">
<path d="M128.239 23.6132C127.173 23.6132 126.148 23.508 125.164 23.2977C124.194 23.0742 123.409 22.7653 122.807 22.3709C122.602 22.2263 122.5 22.0949 122.5 21.9766C122.5 21.8977 122.534 21.8057 122.602 21.7005L123.443 20.4188C123.525 20.2874 123.614 20.2216 123.709 20.2216C123.791 20.2216 123.894 20.2611 124.017 20.34C124.522 20.616 125.103 20.8395 125.759 21.0104C126.415 21.1813 127.077 21.2667 127.747 21.2667C128.539 21.2667 129.127 21.1484 129.509 20.9118C129.892 20.662 130.083 20.2742 130.083 19.7484C130.083 19.3935 129.988 19.1043 129.796 18.8808C129.619 18.6573 129.345 18.4602 128.977 18.2893C128.621 18.1184 128.068 17.8949 127.316 17.6189C126.442 17.3034 125.697 16.9813 125.082 16.6527C124.481 16.324 123.983 15.9034 123.586 15.3907C123.204 14.8649 123.012 14.2273 123.012 13.478C123.012 12.2292 123.484 11.2762 124.427 10.6189C125.369 9.94849 126.613 9.61328 128.157 9.61328C130.193 9.61328 131.75 9.98135 132.83 10.7175C133.035 10.8752 133.137 11.0067 133.137 11.1119C133.137 11.1907 133.103 11.2828 133.035 11.3879L132.194 12.6696C132.112 12.801 132.024 12.8668 131.928 12.8668C131.846 12.8668 131.743 12.8273 131.62 12.7485C130.787 12.2227 129.776 11.9597 128.587 11.9597C127.111 11.9597 126.374 12.4724 126.374 13.4978C126.374 13.8395 126.456 14.1222 126.62 14.3456C126.797 14.556 127.036 14.74 127.337 14.8977C127.638 15.0423 128.109 15.233 128.751 15.4696L129.325 15.6865C130.322 16.0677 131.108 16.4292 131.682 16.771C132.256 17.0996 132.693 17.5071 132.994 17.9935C133.308 18.4799 133.465 19.1043 133.465 19.8667C133.465 21.0104 133.014 21.924 132.112 22.6075C131.224 23.278 129.933 23.6132 128.239 23.6132Z" fill="#1F2937"/>
<path d="M168.163 23.6127C166.919 23.6127 165.976 23.284 165.334 22.6267C164.692 21.9695 164.371 21.0624 164.371 19.9056V16.1395H163.367C163.039 16.1395 162.82 16.0803 162.711 15.962C162.602 15.8437 162.547 15.6334 162.547 15.331V14.6803C162.547 14.378 162.602 14.1677 162.711 14.0494C162.82 13.9179 163.039 13.8522 163.367 13.8522H164.371V13.0634C164.371 12.7742 164.432 12.4916 164.555 12.2156C164.692 11.9264 164.883 11.5714 165.129 11.1508C165.239 10.9667 165.341 10.8484 165.437 10.7959C165.532 10.7301 165.703 10.6973 165.949 10.6973H166.892C167.206 10.6973 167.425 10.763 167.548 10.8944C167.684 11.0259 167.753 11.2362 167.753 11.5254V13.8522H169.782C170.11 13.8522 170.328 13.9179 170.438 14.0494C170.547 14.1677 170.602 14.378 170.602 14.6803V15.331C170.602 15.6334 170.547 15.8437 170.438 15.962C170.328 16.0803 170.11 16.1395 169.782 16.1395H167.753V19.8268C167.753 20.3394 167.848 20.7075 168.04 20.931C168.231 21.1545 168.552 21.2662 169.003 21.2662C169.276 21.2662 169.502 21.2333 169.679 21.1676C169.871 21.1019 170.082 20.9967 170.315 20.8521C170.424 20.7864 170.506 20.7535 170.561 20.7535C170.684 20.7535 170.786 20.8258 170.868 20.9704L171.626 22.2127C171.695 22.3178 171.729 22.4033 171.729 22.469C171.729 22.561 171.647 22.6596 171.483 22.7648C170.622 23.33 169.515 23.6127 168.163 23.6127Z" fill="#1F2937"/>
<path d="M156.728 23.3174C156.4 23.3174 156.161 23.2517 156.011 23.1202C155.874 22.9756 155.806 22.7587 155.806 22.4695V16.14H154.986C154.658 16.14 154.432 16.0743 154.309 15.9428C154.186 15.8114 154.125 15.5945 154.125 15.2921V14.6808C154.125 14.3785 154.186 14.1682 154.309 14.0499C154.432 13.9184 154.658 13.8527 154.986 13.8527H155.806V13.34C155.806 12.1569 156.134 11.2433 156.789 10.5992C157.459 9.94192 158.463 9.61328 159.802 9.61328C161.155 9.61328 162.214 9.88276 162.979 10.4217C163.129 10.5269 163.204 10.6321 163.204 10.7372C163.204 10.8161 163.17 10.9081 163.102 11.0133L162.467 12.0189C162.385 12.1504 162.289 12.2161 162.18 12.2161C162.111 12.2161 162.029 12.1898 161.934 12.1372C161.483 11.9006 161.032 11.7823 160.581 11.7823C160.076 11.7823 159.713 11.9006 159.495 12.1372C159.29 12.3738 159.187 12.7419 159.187 13.2414V13.8527H161.319C161.647 13.8527 161.872 13.9184 161.995 14.0499C162.118 14.1682 162.18 14.3785 162.18 14.6808V15.2921C162.18 15.5945 162.118 15.8114 161.995 15.9428C161.872 16.0743 161.647 16.14 161.319 16.14H159.187V22.4695C159.187 22.7587 159.119 22.9756 158.982 23.1202C158.846 23.2517 158.607 23.3174 158.265 23.3174H156.728Z" fill="#1F2937"/>
<path d="M136.083 23.3175C135.742 23.3175 135.496 23.2518 135.346 23.1203C135.209 22.9757 135.141 22.7588 135.141 22.4696V10.481C135.141 10.2575 135.182 10.1064 135.264 10.0275C135.346 9.94862 135.51 9.90918 135.755 9.90918H137.662C137.908 9.90918 138.071 9.94862 138.153 10.0275C138.249 10.1064 138.297 10.2575 138.297 10.481V14.681C139.185 13.9317 140.34 13.557 141.761 13.557C142.881 13.557 143.776 13.8528 144.446 14.4444C145.129 15.0228 145.47 15.8904 145.47 17.0472V22.4696C145.47 22.7588 145.395 22.9757 145.245 23.1203C145.108 23.2518 144.876 23.3175 144.548 23.3175H143.011C142.669 23.3175 142.423 23.2518 142.273 23.1203C142.136 22.9757 142.068 22.7588 142.068 22.4696V17.2443C142.068 16.7317 141.945 16.3636 141.699 16.1401C141.453 15.9166 141.077 15.8049 140.572 15.8049C140.012 15.8049 139.527 15.9561 139.117 16.2584C138.72 16.5476 138.522 16.9288 138.522 17.4021V22.4696C138.522 22.7588 138.454 22.9757 138.317 23.1203C138.181 23.2518 137.942 23.3175 137.6 23.3175H136.083Z" fill="#1F2937"/>
<path d="M147.562 23.5994C147.221 23.5994 146.982 23.5316 146.845 23.396C146.709 23.2469 146.641 23.0232 146.641 22.725L149.355 14.7336C149.355 14.4218 149.478 14.1981 149.614 14.0625C149.751 13.9134 149.99 13.8389 150.331 13.8389H151.847C152.188 13.8389 152.427 13.9134 152.564 14.0625C152.714 14.2117 152.789 14.4353 152.789 14.7336L150.072 22.725C150.072 23.0232 149.945 23.2469 149.795 23.396C149.658 23.5316 149.42 23.5994 149.078 23.5994H147.562Z" fill="#1F2937"/>
<path d="M151.355 13.1088C150.972 13.1088 150.672 13.0037 150.453 12.7934C150.234 12.583 150.125 12.3267 150.125 12.0243V11.5708C150.125 11.2685 150.234 11.0121 150.453 10.8018C150.672 10.5915 150.972 10.4863 151.355 10.4863H152.543C152.94 10.4863 153.247 10.5915 153.466 10.8018C153.684 11.0121 153.794 11.2685 153.794 11.5708V12.0243C153.794 12.3267 153.684 12.583 153.466 12.7934C153.247 13.0037 152.94 13.1088 152.543 13.1088H151.355Z" fill="#E57A17"/>
<path d="M110.005 23.3054C109.664 23.3054 109.418 23.2397 109.267 23.1082C109.131 22.9636 109.062 22.7467 109.062 22.4575V14.4125C109.062 14.189 109.103 14.0379 109.185 13.959C109.267 13.8801 109.431 13.8407 109.677 13.8407H111.317C111.481 13.8407 111.604 13.867 111.686 13.9196C111.768 13.9721 111.816 14.0642 111.829 14.1956L111.891 14.8858C112.314 14.4651 112.847 14.1365 113.49 13.8998C114.132 13.6632 114.863 13.5449 115.683 13.5449C116.803 13.5449 117.698 13.8407 118.367 14.4322C119.051 15.0106 119.392 15.8782 119.392 17.035V22.4575C119.392 22.7467 119.317 22.9636 119.167 23.1082C119.03 23.2397 118.798 23.3054 118.47 23.3054H116.933C116.591 23.3054 116.345 23.2397 116.195 23.1082C116.058 22.9636 115.99 22.7467 115.99 22.4575V17.2322C115.99 16.7195 115.874 16.3515 115.642 16.128C115.409 15.9045 115.027 15.7928 114.494 15.7928C113.92 15.7928 113.435 15.944 113.039 16.2463C112.642 16.5355 112.444 16.9167 112.444 17.39V22.4575C112.444 22.7467 112.376 22.9636 112.239 23.1082C112.103 23.2397 111.864 23.3054 111.522 23.3054H110.005Z" fill="#E57A17"/>
<path d="M101.005 23.3054C100.664 23.3054 100.418 23.2397 100.267 23.1082C100.131 22.9636 100.062 22.7467 100.062 22.4575V14.4125C100.062 14.189 100.103 14.0379 100.185 13.959C100.267 13.8801 100.431 13.8407 100.677 13.8407H102.317C102.481 13.8407 102.597 13.867 102.665 13.9196C102.747 13.9721 102.795 14.0642 102.809 14.1956L102.891 14.8266C103.711 13.9721 104.735 13.5449 105.965 13.5449C106.361 13.5449 106.683 13.5778 106.928 13.6435C107.188 13.6961 107.414 13.7881 107.605 13.9196C107.728 14.0116 107.789 14.1036 107.789 14.1956C107.789 14.2351 107.776 14.2942 107.748 14.3731L107.236 15.8519C107.181 16.0097 107.092 16.0886 106.969 16.0886C106.915 16.0886 106.846 16.0688 106.765 16.0294C106.409 15.8585 105.999 15.7731 105.535 15.7731C104.934 15.7731 104.435 15.9374 104.039 16.266C103.642 16.5947 103.444 17.035 103.444 17.5871V22.4575C103.444 22.7467 103.376 22.9636 103.239 23.1082C103.103 23.2397 102.864 23.3054 102.522 23.3054H101.005Z" fill="#E57A17"/>
<path d="M93.2787 23.6012C92.1719 23.6012 91.1745 23.4237 90.2864 23.0688C89.4119 22.7007 88.715 22.1552 88.1958 21.4322C87.6903 20.696 87.4375 19.789 87.4375 18.7111C87.4375 17.0285 87.9157 15.7468 88.8722 14.866C89.8423 13.9853 91.2223 13.5449 93.0123 13.5449C94.7749 13.5449 96.1071 13.9721 97.0089 14.8266C97.9243 15.6811 98.3821 16.897 98.3821 18.4745C98.3821 19.0266 98.1225 19.3026 97.6032 19.3026H90.6348C90.6348 20.0125 90.9081 20.5646 91.4546 20.9589C92.0148 21.3402 92.78 21.5308 93.7501 21.5308C94.324 21.5308 94.8227 21.4782 95.2463 21.373C95.6698 21.2547 96.0797 21.0904 96.476 20.8801C96.6126 20.8143 96.7083 20.7815 96.7629 20.7815C96.8586 20.7815 96.9474 20.8538 97.0294 20.9984L97.6237 22.0632C97.6784 22.1552 97.7057 22.2341 97.7057 22.2998C97.7057 22.4049 97.6306 22.5101 97.4803 22.6153C96.9337 22.9571 96.3189 23.2068 95.6357 23.3646C94.9525 23.5223 94.1668 23.6012 93.2787 23.6012ZM95.3487 17.6069C95.3487 16.9496 95.1574 16.4369 94.7749 16.0688C94.3923 15.7008 93.8116 15.5167 93.0328 15.5167C92.2539 15.5167 91.6596 15.7073 91.2497 16.0886C90.8397 16.4566 90.6348 16.9627 90.6348 17.6069H95.3487Z" fill="#E57A17"/>
<path d="M83.0064 23.6019C81.763 23.6019 80.8202 23.2733 80.178 22.616C79.5358 21.9587 79.2147 21.0517 79.2147 19.8949V16.1287H78.2104C77.8825 16.1287 77.6639 16.0696 77.5546 15.9513C77.4453 15.833 77.3906 15.6226 77.3906 15.3203V14.6696C77.3906 14.3672 77.4453 14.1569 77.5546 14.0386C77.6639 13.9072 77.8825 13.8414 78.2104 13.8414H79.2147V13.0527C79.2147 12.7635 79.2762 12.4809 79.3992 12.2048C79.5358 11.9156 79.7271 11.5607 79.9731 11.14C80.0824 10.956 80.1848 10.8377 80.2805 10.7851C80.3761 10.7194 80.5469 10.6865 80.7929 10.6865H81.7357C82.0499 10.6865 82.2685 10.7523 82.3915 10.8837C82.5282 11.0152 82.5965 11.2255 82.5965 11.5147V13.8414H84.6255C84.9534 13.8414 85.1721 13.9072 85.2814 14.0386C85.3907 14.1569 85.4453 14.3672 85.4453 14.6696V15.3203C85.4453 15.6226 85.3907 15.833 85.2814 15.9513C85.1721 16.0696 84.9534 16.1287 84.6255 16.1287H82.5965V19.816C82.5965 20.3287 82.6921 20.6968 82.8834 20.9202C83.0747 21.1437 83.3958 21.2555 83.8467 21.2555C84.12 21.2555 84.3454 21.2226 84.523 21.1569C84.7143 21.0911 84.9261 20.986 85.1584 20.8414C85.2677 20.7756 85.3497 20.7428 85.4043 20.7428C85.5273 20.7428 85.6298 20.8151 85.7118 20.9597L86.4701 22.2019C86.5384 22.3071 86.5726 22.3925 86.5726 22.4583C86.5726 22.5503 86.4906 22.6489 86.3266 22.754C85.4658 23.3193 84.3591 23.6019 83.0064 23.6019Z" fill="#E57A17"/>
<path d="M66.8178 23.3054C66.4762 23.3054 66.2303 23.2397 66.08 23.1082C65.9433 22.9636 65.875 22.7467 65.875 22.4575V14.4125C65.875 14.189 65.916 14.0379 65.998 13.959C66.08 13.8801 66.2439 13.8407 66.4899 13.8407H68.1295C68.2935 13.8407 68.4164 13.867 68.4984 13.9196C68.5804 13.9721 68.6282 14.0642 68.6419 14.1956L68.7034 14.8858C69.1269 14.4651 69.6598 14.1365 70.302 13.8998C70.9442 13.6632 71.6752 13.5449 72.495 13.5449C73.6154 13.5449 74.5104 13.8407 75.1799 14.4322C75.8631 15.0106 76.2047 15.8782 76.2047 17.035V22.4575C76.2047 22.7467 76.1296 22.9636 75.9793 23.1082C75.8426 23.2397 75.6103 23.3054 75.2824 23.3054H73.7453C73.4037 23.3054 73.1577 23.2397 73.0074 23.1082C72.8708 22.9636 72.8025 22.7467 72.8025 22.4575V17.2322C72.8025 16.7195 72.6863 16.3515 72.454 16.128C72.2218 15.9045 71.8392 15.7928 71.3063 15.7928C70.7324 15.7928 70.2474 15.944 69.8511 16.2463C69.4549 16.5355 69.2567 16.9167 69.2567 17.39V22.4575C69.2567 22.7467 69.1884 22.9636 69.0518 23.1082C68.9152 23.2397 68.676 23.3054 68.3345 23.3054H66.8178Z" fill="#E57A17"/>
<path d="M59.0912 23.6012C57.9844 23.6012 56.987 23.4237 56.0989 23.0688C55.2244 22.7007 54.5276 22.1552 54.0083 21.4322C53.5028 20.696 53.25 19.789 53.25 18.7111C53.25 17.0285 53.7282 15.7468 54.6847 14.866C55.6548 13.9853 57.0348 13.5449 58.8248 13.5449C60.5874 13.5449 61.9196 13.9721 62.8214 14.8266C63.7368 15.6811 64.1946 16.897 64.1946 18.4745C64.1946 19.0266 63.935 19.3026 63.4157 19.3026H56.4473C56.4473 20.0125 56.7206 20.5646 57.2671 20.9589C57.8273 21.3402 58.5925 21.5308 59.5626 21.5308C60.1365 21.5308 60.6352 21.4782 61.0588 21.373C61.4823 21.2547 61.8922 21.0904 62.2885 20.8801C62.4251 20.8143 62.5208 20.7815 62.5754 20.7815C62.6711 20.7815 62.7599 20.8538 62.8419 20.9984L63.4362 22.0632C63.4909 22.1552 63.5182 22.2341 63.5182 22.2998C63.5182 22.4049 63.4431 22.5101 63.2928 22.6153C62.7462 22.9571 62.1314 23.2068 61.4482 23.3646C60.765 23.5223 59.9793 23.6012 59.0912 23.6012ZM61.1612 17.6069C61.1612 16.9496 60.97 16.4369 60.5874 16.0688C60.2048 15.7008 59.6241 15.5167 58.8453 15.5167C58.0664 15.5167 57.4721 15.7073 57.0622 16.0886C56.6522 16.4566 56.4473 16.9627 56.4473 17.6069H61.1612Z" fill="#E57A17"/>
<path d="M38.6567 23.3058C38.3287 23.3058 38.0896 23.2401 37.9393 23.1086C37.8027 22.964 37.7344 22.7471 37.7344 22.4579V10.7453C37.7344 10.4561 37.8027 10.2458 37.9393 10.1144C38.0896 9.96976 38.3356 9.89746 38.6772 9.89746H40.1938C40.4398 9.89746 40.6311 9.93032 40.7677 9.99605C40.9043 10.0486 41.0136 10.1604 41.0956 10.3313L44.6413 18.3763L48.2076 10.3313C48.2895 10.1604 48.3988 10.0486 48.5355 9.99605C48.6721 9.93032 48.8634 9.89746 49.1093 9.89746H50.626C50.9676 9.89746 51.2067 9.96976 51.3434 10.1144C51.4937 10.2458 51.5688 10.4561 51.5688 10.7453V22.4579C51.5688 22.7471 51.4937 22.964 51.3434 23.1086C51.2067 23.2401 50.9744 23.3058 50.6465 23.3058H49.3963C49.0547 23.3058 48.8087 23.2401 48.6585 23.1086C48.5218 22.964 48.4535 22.7471 48.4535 22.4579V15.0045L45.7071 20.9002C45.5705 21.1762 45.4338 21.3734 45.2972 21.4917C45.1742 21.5969 44.9556 21.6495 44.6413 21.6495C44.3407 21.6495 44.1153 21.5969 43.965 21.4917C43.8284 21.3734 43.6986 21.1762 43.5756 20.9002L40.8497 15.0045V22.4579C40.8497 22.7471 40.7745 22.964 40.6242 23.1086C40.4876 23.2401 40.2485 23.3058 39.9069 23.3058H38.6567Z" fill="#E57A17"/>
<path d="M9.82151 23.2359C9.4822 23.2359 9.23478 23.1738 9.07926 23.0496C8.93788 22.913 8.86719 22.7081 8.86719 22.4348V11.3685C8.86719 11.0952 8.93788 10.8965 9.07926 10.7723C9.23478 10.6357 9.48927 10.5674 9.84272 10.5674H11.4121C11.6665 10.5674 11.8645 10.5984 12.0059 10.6605C12.1472 10.7102 12.2603 10.8158 12.3452 10.9772L16.014 18.5784L19.7041 10.9772C19.7889 10.8158 19.902 10.7102 20.0434 10.6605C20.1848 10.5984 20.3827 10.5674 20.6372 10.5674H22.2065C22.56 10.5674 22.8074 10.6357 22.9488 10.7723C23.1043 10.8965 23.182 11.0952 23.182 11.3685V22.4348C23.182 22.7081 23.1043 22.913 22.9488 23.0496C22.8074 23.1738 22.567 23.2359 22.2277 23.2359H20.9341C20.5806 23.2359 20.3261 23.1738 20.1706 23.0496C20.0292 22.913 19.9585 22.7081 19.9585 22.4348V15.3926L17.1168 20.963C16.9754 21.2239 16.834 21.4102 16.6926 21.5219C16.5654 21.6213 16.3392 21.671 16.014 21.671C15.703 21.671 15.4697 21.6213 15.3142 21.5219C15.1728 21.4102 15.0385 21.2239 14.9112 20.963L12.0907 15.3926V22.4348C12.0907 22.7081 12.0129 22.913 11.8574 23.0496C11.716 23.1738 11.4686 23.2359 11.1151 23.2359H9.82151Z" fill="#E57A17"/>
<path d="M5.07099 24.8104C5.18961 24.8104 5.3794 24.8036 5.64037 24.7899C5.91319 24.7763 6.19195 24.7558 6.47663 24.7285C6.76132 24.7149 7.02822 24.6876 7.27732 24.6467C7.52642 24.6058 7.68655 24.5512 7.75773 24.483L7.72214 26.9999C7.66283 26.9453 7.46118 26.8976 7.11718 26.8567C6.78504 26.8294 6.41139 26.8021 5.99622 26.7748C5.58106 26.7612 5.18368 26.7544 4.8041 26.7544C4.42451 26.7544 4.16948 26.7544 4.039 26.7544C3.51707 26.7544 3.1197 26.5497 2.84687 26.1405C2.57405 25.7312 2.43763 25.2469 2.43763 24.6876C2.43763 23.8418 2.4495 23.0097 2.47322 22.1912C2.49694 21.359 2.50881 20.52 2.50881 19.6742C2.41391 19.606 2.24191 19.4764 1.99281 19.2854C1.75557 19.0945 1.50054 18.8966 1.22771 18.692C0.954888 18.4874 0.699856 18.3032 0.462617 18.1395C0.225377 17.9758 0.0771028 17.894 0.0177929 17.894H0V16.0523C0.0474479 16.066 0.189791 15.9978 0.427031 15.8477C0.676132 15.684 0.943026 15.4998 1.22771 15.2952C1.5124 15.0906 1.77929 14.8928 2.0284 14.7018C2.2775 14.5108 2.44357 14.388 2.5266 14.3334C2.51474 13.5968 2.50287 12.8601 2.49101 12.1235C2.49101 11.3868 2.47322 10.6501 2.43763 9.91348V9.58608C2.43763 9.27232 2.46136 8.97902 2.50881 8.70618C2.56812 8.43334 2.66301 8.19461 2.79349 7.98998C2.92397 7.78535 3.09004 7.62847 3.2917 7.51934C3.50521 7.39656 3.76617 7.33517 4.07459 7.33517C4.32369 7.33517 4.60837 7.33517 4.92865 7.33517C5.26078 7.32153 5.59885 7.30789 5.94285 7.29425C6.28684 7.26696 6.61898 7.23286 6.93925 7.19193C7.25952 7.13737 7.53235 7.06916 7.75773 6.9873L7.72214 9.50423C7.66283 9.44966 7.52642 9.40873 7.3129 9.38145C7.11125 9.34052 6.87994 9.31324 6.61898 9.2996C6.36988 9.27232 6.12671 9.25867 5.88947 9.25867C5.65223 9.25867 5.48023 9.25867 5.37347 9.25867C5.13623 9.25867 4.98203 9.31324 4.91085 9.42238C4.83968 9.51787 4.7863 9.69521 4.75072 9.95441C4.70327 10.2409 4.67955 10.5274 4.67955 10.8138C4.67955 11.1003 4.67361 11.38 4.66175 11.6528C4.63803 12.2394 4.61431 12.826 4.59058 13.4126C4.57872 13.9856 4.56093 14.5585 4.5372 15.1315C4.45417 15.1588 4.29996 15.2543 4.07459 15.418C3.86107 15.568 3.62383 15.7386 3.36287 15.9295C3.1019 16.1205 2.8528 16.3047 2.61556 16.482C2.39019 16.6594 2.22412 16.789 2.11736 16.8708C2.49694 17.1846 2.88839 17.4574 3.2917 17.6893C3.70686 17.9213 4.12203 18.16 4.5372 18.4055C4.5372 19.2241 4.5372 20.0426 4.5372 20.8611C4.5372 21.6796 4.54313 22.4981 4.555 23.3166C4.555 23.453 4.54906 23.6031 4.5372 23.7668C4.52534 23.9168 4.53127 24.0533 4.555 24.176C4.57872 24.2988 4.63803 24.4352 4.73292 24.5853C4.83968 24.7354 4.95237 24.8104 5.07099 24.8104Z" fill="#1F2937"/>
<path d="M8.86719 24.6603C8.99762 24.715 9.20414 24.7561 9.48674 24.7835C9.76934 24.7971 10.0682 24.8108 10.3835 24.8245C10.6987 24.8245 11.003 24.8245 11.2965 24.8245C11.5899 24.8245 11.8182 24.8245 11.9812 24.8245C13.5247 24.8245 15.0518 24.8108 16.5626 24.7835C18.0843 24.7561 19.6115 24.7082 21.144 24.6398C21.2854 24.6398 21.443 24.6398 21.6169 24.6398C21.8016 24.6261 21.9864 24.6193 22.1712 24.6193C22.3668 24.6056 22.5516 24.5919 22.7255 24.5782C22.8994 24.5508 23.0516 24.5166 23.182 24.4756L23.1331 27.0001C23.0462 26.9591 22.8234 26.9249 22.4647 26.8975C22.106 26.8701 21.6712 26.8496 21.1604 26.8359C20.6604 26.8222 20.1169 26.8085 19.53 26.7949C18.9539 26.7812 18.3941 26.7743 17.8507 26.7743C17.3181 26.7743 16.8398 26.7743 16.4159 26.7743C15.992 26.7743 15.6931 26.7743 15.5192 26.7743C13.8671 26.7743 12.2204 26.7949 10.5791 26.8359C10.3074 26.8359 10.0248 26.8359 9.7313 26.8359C9.44869 26.8359 9.17696 26.8701 8.9161 26.9385L8.86719 24.6603Z" fill="#1F2937"/>
<path d="M26.9289 24.8104C27.0594 24.8104 27.1721 24.7354 27.267 24.5853C27.3619 24.4352 27.4212 24.2988 27.4449 24.176C27.4449 24.1624 27.4449 24.1147 27.4449 24.0328C27.4449 23.951 27.4449 23.8623 27.4449 23.7668C27.4449 23.6577 27.4449 23.5622 27.4449 23.4803C27.4568 23.3985 27.4627 23.3439 27.4627 23.3166V20.0221V18.4055C27.8779 18.16 28.2871 17.9213 28.6904 17.6893C29.1056 17.4574 29.5089 17.1846 29.9003 16.8708C29.8173 16.8163 29.6512 16.7003 29.4021 16.523C29.1649 16.332 28.9099 16.141 28.637 15.95C28.3642 15.7454 28.1092 15.5612 27.8719 15.3975C27.6466 15.2338 27.5102 15.1451 27.4627 15.1315C27.439 14.5585 27.4153 13.9856 27.3915 13.4126C27.3797 12.826 27.3619 12.2394 27.3382 11.6528C27.3263 11.38 27.3144 11.1003 27.3026 10.8138C27.3026 10.5274 27.2907 10.2409 27.267 9.95441C27.2433 9.74978 27.2017 9.59972 27.1424 9.50423C27.095 9.40873 27.0297 9.34735 26.9467 9.32006C26.8637 9.27914 26.7629 9.26549 26.6442 9.27914C26.5375 9.27914 26.4129 9.27914 26.2706 9.27914C26.1994 9.27914 26.063 9.27914 25.8613 9.27914C25.6597 9.27914 25.4462 9.28596 25.2208 9.2996C25.0073 9.31324 24.8056 9.34053 24.6158 9.38145C24.426 9.40873 24.3134 9.44966 24.2778 9.50423L24.2422 6.9873C24.4557 7.06916 24.7285 7.13737 25.0607 7.19193C25.3928 7.23286 25.7368 7.26696 26.0927 7.29425C26.4485 7.30789 26.7925 7.32153 27.1246 7.33517C27.4686 7.33517 27.7593 7.33517 27.9965 7.33517C28.293 7.33517 28.5362 7.39656 28.726 7.51934C28.9277 7.64211 29.0878 7.80582 29.2064 8.01044C29.3369 8.21507 29.4259 8.4538 29.4733 8.72664C29.5326 8.99948 29.5623 9.28596 29.5623 9.58608V9.91348C29.5267 10.6501 29.503 11.3868 29.4911 12.1235C29.4911 12.8601 29.4911 13.5968 29.4911 14.3334C29.8114 14.5654 30.1317 14.8041 30.4519 15.0496C30.7722 15.2952 31.1043 15.5339 31.4483 15.7658C31.4602 15.7795 31.4898 15.8068 31.5373 15.8477C31.5966 15.875 31.6559 15.9091 31.7152 15.95C31.7864 15.9909 31.8457 16.025 31.8932 16.0523C31.9525 16.066 31.9881 16.066 31.9999 16.0523V17.894H31.9821C31.9228 17.894 31.7745 17.9758 31.5373 18.1395C31.3001 18.3032 31.0391 18.4942 30.7544 18.7125C30.4816 18.9171 30.2206 19.1149 29.9715 19.3059C29.7224 19.4969 29.5623 19.6197 29.4911 19.6742C29.4911 20.4791 29.497 21.2772 29.5089 22.0684C29.5208 22.8596 29.5386 23.6645 29.5623 24.483V24.6262C29.5741 25.1992 29.4437 25.6971 29.1708 26.12C28.9099 26.5429 28.5066 26.7544 27.9609 26.7544C27.8897 26.7544 27.7533 26.7544 27.5517 26.7544C27.3619 26.7544 27.1365 26.7544 26.8755 26.7544C26.6146 26.768 26.3358 26.7748 26.0393 26.7748C25.7427 26.7885 25.4699 26.8021 25.2208 26.8157C24.9717 26.843 24.7582 26.8703 24.5803 26.8976C24.4023 26.9249 24.3015 26.959 24.2778 26.9999L24.2422 24.483C24.3134 24.5512 24.4735 24.6058 24.7226 24.6467C24.9836 24.6876 25.2564 24.7149 25.5411 24.7285C25.8376 24.7558 26.1164 24.7763 26.3773 24.7899C26.6502 24.8036 26.834 24.8104 26.9289 24.8104Z" fill="#1F2937"/>
<path fill-rule="evenodd" clip-rule="evenodd" d="M15.2252 4.40229C15.7173 4.06623 16.0401 3.5028 16.0401 2.86444C16.0401 1.83474 15.2003 1 14.1644 1C13.1285 1 12.2887 1.83474 12.2887 2.86444C12.2887 3.48394 12.5927 4.03288 13.0605 4.37192C12.6888 4.48372 11.8197 5.08833 11.5855 6.34591C11.4734 6.80641 11.339 7.93123 11.3312 8.42171C11.3284 8.59293 11.3082 8.76692 11.291 8.91558C11.2614 9.17049 11.2404 9.35092 11.331 9.31523C11.7468 9.31523 12.2739 9.30445 12.8015 9.29367C13.3302 9.28286 13.8593 9.27204 14.2775 9.27204C14.8481 9.27204 15.347 9.28034 15.7567 9.28717C16.5496 9.30037 17.0088 9.30801 17.0088 9.23913V8.42171C17.0088 8.30315 17.0107 8.18477 17.0126 8.06669C17.022 7.48064 17.0313 6.902 16.8075 6.34591C16.5743 5.76638 16.0391 4.94137 15.5357 4.54113C15.4678 4.48709 15.3566 4.44111 15.2252 4.40229Z" fill="#E57A17" stroke="#E57A17" stroke-width="0.5" stroke-linecap="round"/>
<path fill-rule="evenodd" clip-rule="evenodd" d="M19.3743 5.23387C19.8309 4.92975 20.1314 4.41218 20.1314 3.82483C20.1314 2.88874 19.368 2.12988 18.4263 2.12988C17.4845 2.12988 16.7211 2.88874 16.7211 3.82483C16.7211 4.38192 16.9915 4.87624 17.4089 5.18519C17.1123 5.27222 16.833 5.42259 16.7135 5.68175C16.6217 5.80949 16.4861 6.34358 16.388 6.73009C16.3627 6.82964 16.3399 6.9194 16.321 6.98991C16.2286 7.33416 16.1 8.15137 16.0935 8.55894C16.0912 8.70122 16.0744 8.8458 16.0601 8.96933C16.0355 9.18115 16.0181 9.33108 16.0933 9.30143C16.4385 9.30143 16.8756 9.2973 17.3131 9.29318C17.7515 9.28904 18.1903 9.2849 18.5375 9.2849C18.7507 9.2849 19.0545 9.29392 19.3682 9.30324C20.0275 9.32283 20.7309 9.34372 20.7309 9.2849V8.55895C20.7309 7.97147 20.6946 7.38923 20.4714 6.83403C20.2778 6.35246 20.0021 5.66691 19.5842 5.33432C19.5363 5.29616 19.4624 5.26283 19.3743 5.23387Z" fill="#1F2937" stroke="#1F2937" stroke-width="0.5" stroke-linecap="round"/>
</svg>
