<svg width="74" height="81" viewBox="0 0 74 81" fill="none" xmlns="http://www.w3.org/2000/svg">
<g filter="url(#filter0_dddd_1650_22640)">
<circle cx="37" cy="29" r="23" fill="white"/>
</g>
<path fill-rule="evenodd" clip-rule="evenodd" d="M28 18V21H25V23H28V26H30V23H33V21H30V18H28ZM31 24V27H28V37C28 38.1 28.9 39 30 39H46C47.1 39 48 38.1 48 37V25C48 23.9 47.1 23 46 23H42.83L41 21H34V24H31ZM38 36C40.76 36 43 33.76 43 31C43 28.24 40.76 26 38 26C35.24 26 33 28.24 33 31C33 33.76 35.24 36 38 36ZM38 34C36.34 34 35 32.66 35 31C35 29.34 36.34 28 38 28C39.66 28 41 29.34 41 31C41 32.66 39.66 34 38 34Z" fill="#6B7280"/>
<defs>
<filter id="filter0_dddd_1650_22640" x="0" y="0.7" width="74" height="80.3" filterUnits="userSpaceOnUse" color-interpolation-filters="sRGB">
<feFlood flood-opacity="0" result="BackgroundImageFix"/>
<feColorMatrix in="SourceAlpha" type="matrix" values="0 0 0 0 0 0 0 0 0 0 0 0 0 0 0 0 0 0 127 0" result="hardAlpha"/>
<feMorphology radius="1" operator="erode" in="SourceAlpha" result="effect1_dropShadow_1650_22640"/>
<feOffset dy="15"/>
<feGaussianBlur stdDeviation="7.5"/>
<feColorMatrix type="matrix" values="0 0 0 0 0 0 0 0 0 0 0 0 0 0 0 0 0 0 0.04 0"/>
<feBlend mode="normal" in2="BackgroundImageFix" result="effect1_dropShadow_1650_22640"/>
<feColorMatrix in="SourceAlpha" type="matrix" values="0 0 0 0 0 0 0 0 0 0 0 0 0 0 0 0 0 0 127 0" result="hardAlpha"/>
<feMorphology radius="1" operator="erode" in="SourceAlpha" result="effect2_dropShadow_1650_22640"/>
<feOffset dy="5.7"/>
<feGaussianBlur stdDeviation="6"/>
<feColorMatrix type="matrix" values="0 0 0 0 0 0 0 0 0 0 0 0 0 0 0 0 0 0 0.05 0"/>
<feBlend mode="normal" in2="effect1_dropShadow_1650_22640" result="effect2_dropShadow_1650_22640"/>
<feColorMatrix in="SourceAlpha" type="matrix" values="0 0 0 0 0 0 0 0 0 0 0 0 0 0 0 0 0 0 127 0" result="hardAlpha"/>
<feMorphology radius="1" operator="erode" in="SourceAlpha" result="effect3_dropShadow_1650_22640"/>
<feOffset dy="2.6"/>
<feGaussianBlur stdDeviation="4"/>
<feColorMatrix type="matrix" values="0 0 0 0 0 0 0 0 0 0 0 0 0 0 0 0 0 0 0.06 0"/>
<feBlend mode="normal" in2="effect2_dropShadow_1650_22640" result="effect3_dropShadow_1650_22640"/>
<feColorMatrix in="SourceAlpha" type="matrix" values="0 0 0 0 0 0 0 0 0 0 0 0 0 0 0 0 0 0 127 0" result="hardAlpha"/>
<feMorphology radius="1" operator="erode" in="SourceAlpha" result="effect4_dropShadow_1650_22640"/>
<feOffset dy="0.9"/>
<feGaussianBlur stdDeviation="2"/>
<feColorMatrix type="matrix" values="0 0 0 0 0 0 0 0 0 0 0 0 0 0 0 0 0 0 0.08 0"/>
<feBlend mode="normal" in2="effect3_dropShadow_1650_22640" result="effect4_dropShadow_1650_22640"/>
<feBlend mode="normal" in="SourceGraphic" in2="effect4_dropShadow_1650_22640" result="shape"/>
</filter>
</defs>
</svg>
